<svg width="25" height="25" viewBox="0 0 25 25" fill="none" xmlns="http://www.w3.org/2000/svg">
<path d="M19.1406 0H5.85938C2.62333 0 0 2.62333 0 5.85938V19.1406C0 22.3767 2.62333 25 5.85938 25H19.1406C22.3767 25 25 22.3767 25 19.1406V5.85938C25 2.62333 22.3767 0 19.1406 0Z" fill="#0277BD"/>
<path d="M5.24932 10.0245L5.52881 13.1438H12.5094V10.0245H5.24932ZM12.5093 3.71094H4.6875L4.97109 6.83027H12.5093V3.71094ZM12.5093 21.3712V18.1258L12.4956 18.1294L9.02158 17.1914L8.79951 14.7035H5.66816L6.10518 19.6014L12.4949 21.3752L12.5093 21.3712Z" fill="#EBEBEB"/>
<path d="M16.3396 13.1438L15.9775 17.1894L12.4985 18.1284V21.3736L18.8934 19.6014L18.9402 19.0743L19.6732 10.8622L19.7493 10.0245L20.3125 3.71094H12.4985V6.83027H16.8939L16.6102 10.0245H12.4985V13.1438H16.3396Z" fill="white"/>
</svg>
