<svg width="25" height="22" viewBox="0 0 25 22" fill="none" xmlns="http://www.w3.org/2000/svg">
<path d="M24.7402 16.9196C23.8496 17.119 23.2988 16.9282 22.8047 16.2751C21.6953 14.8124 20.4707 13.4168 19.2891 11.9954C19.1367 11.8115 18.9785 11.631 18.7813 11.4024C17.3828 13.0627 15.9863 14.644 14.6758 16.2888C14.207 16.8766 13.7148 17.1327 12.8398 16.9248L18.0977 10.7149L13.2031 5.10664C14.0449 4.96226 14.627 5.03617 15.1426 5.69961C16.2813 7.16398 17.5371 8.55789 18.7891 10.0326C20.0488 8.56305 21.2891 7.16742 22.4609 5.7168C22.9316 5.12898 23.4375 4.90555 24.2832 5.12211C23.6426 5.86976 23.0156 6.60539 22.3848 7.33586C21.5332 8.3207 20.6973 9.31758 19.8145 10.2818C19.5 10.6255 19.5508 10.849 19.832 11.1738C21.4648 13.0627 23.0781 14.9705 24.7402 16.9196ZM0.259766 10.6118C0.400391 9.99133 0.494141 9.35883 0.689453 8.75039C1.86133 5.06711 6.66602 3.5357 9.9668 5.8182C11.9004 7.15711 12.3809 9.0443 12.2852 11.1721H1.38672C1.22266 14.9895 4.3457 17.2943 8.32617 16.1187C9.72266 15.7062 10.5449 14.7437 10.957 13.5405C11.166 12.9373 11.5117 12.8427 12.1563 13.0146C11.8262 14.5202 11.0781 15.7784 9.51563 16.5655C7.17188 17.7446 3.82617 17.363 2.06641 15.7251C1.02734 14.7626 0.585938 13.5646 0.390625 12.2704C0.361328 12.0641 0.300781 11.8613 0.253906 11.6568C0.257813 11.3085 0.259766 10.9601 0.259766 10.6118ZM1.40625 10.3557H11.2559C11.1914 7.59539 9.23828 5.6343 6.56836 5.61711C3.63867 5.59648 1.5332 7.51117 1.40625 10.3557Z" fill="white"/>
</svg>
