<svg width="25" height="25" viewBox="0 0 25 25" fill="none" xmlns="http://www.w3.org/2000/svg">
<g clip-path="url(#clip0_1201_155)">
<path d="M7.44521 20.6337C6.53121 19.9137 5.55521 19.2237 4.88921 18.2537C3.48721 16.5417 2.40721 14.5597 1.66921 12.4767C1.22321 11.1217 1.06921 9.6687 0.495205 8.3667C-0.106795 7.4227 0.598205 6.3887 1.63321 6.0867C2.09321 5.9997 2.90521 5.5647 1.92621 5.8757C1.04821 6.5197 0.963205 5.2907 1.86321 5.2137C2.47821 5.1317 2.70321 4.6287 2.49321 4.1767C1.83321 3.7467 4.09321 3.2737 2.95621 2.6327C1.77321 1.3537 4.61321 1.1087 3.91321 2.5587C3.74621 3.6737 5.89721 2.3537 5.39821 3.6417C5.90521 4.2607 7.29821 3.7817 7.26321 4.6507C8.00321 4.7007 8.2562 5.3227 8.9502 5.3707C9.6702 5.6957 10.9722 5.9507 11.2162 6.7607C10.5032 7.3267 8.8522 5.5957 8.7732 7.1587C8.9882 9.4687 8.9332 11.8477 9.7772 14.0467C10.1772 15.3787 11.1472 16.4267 12.0212 17.4647C12.8582 18.4807 13.9922 19.1947 15.1482 19.7977C16.1622 20.2757 17.2552 20.5927 18.3612 20.7917C18.8092 20.4487 19.6012 19.1747 20.2992 19.7117C20.3322 20.3157 18.9112 20.9747 20.2322 20.9077C21.0082 20.6737 21.5462 21.5077 22.1852 20.7557C22.7732 21.4527 24.6312 20.3097 24.2122 21.7357C23.6462 22.0997 22.8202 21.8797 22.2532 22.3817C21.3182 21.9147 20.5732 22.7997 19.5382 22.6877C18.3876 22.8859 17.2218 22.9829 16.0542 22.9777C14.1422 22.8277 12.1892 22.7637 10.3702 22.0977C9.3462 21.8007 8.34621 21.2167 7.44521 20.6337ZM9.0602 21.3337C10.0602 21.7657 11.0382 22.2217 12.1342 22.3597C13.8742 22.5997 15.6712 22.9737 17.4172 22.6337C16.6272 22.2767 15.8092 22.7737 15.0222 22.3787C14.0782 22.5817 13.0652 22.3267 12.1052 22.2017C11.0132 21.7157 9.83521 21.3817 8.81421 20.7497C7.53721 20.2837 9.4742 21.3477 9.8192 21.4347C10.6172 21.8877 8.9422 21.2017 8.7052 21.0137C8.0372 20.6387 7.9512 20.7167 8.6392 21.0977C8.7782 21.1777 8.91521 21.2637 9.05921 21.3327L9.0602 21.3337ZM7.15621 19.9877C8.12621 20.3467 7.15221 19.3057 6.70621 19.3657C6.51021 19.0247 5.95521 18.8087 6.34621 18.6257C5.64221 18.8697 5.60921 17.6957 5.27621 17.8627C4.53221 17.6277 4.98621 16.7927 4.10021 16.2827C4.01921 15.7427 3.21821 15.2747 2.96221 14.4607C2.84921 14.0447 2.05721 12.8477 2.54421 13.9607C2.95821 15.0327 3.68721 15.9507 4.29421 16.8677C4.76421 17.7407 5.32121 18.6537 6.17921 19.1977C6.46921 19.4757 6.74721 19.9007 7.15621 19.9877ZM4.36321 16.9207C4.54021 17.2377 4.39621 16.7747 4.36321 16.9207ZM8.3172 20.4177C8.5322 20.3217 8.0072 20.2977 8.3172 20.4177ZM8.8432 20.6097C8.7892 20.3447 8.6032 20.7577 8.8432 20.6097ZM9.5032 20.8847C9.8152 20.5847 9.0192 20.6967 9.5032 20.8847ZM10.6302 21.5147C10.8212 21.2327 10.0202 21.4077 10.6302 21.5147ZM8.4632 20.0017C8.9502 19.6867 7.8332 19.9977 8.4632 20.0017ZM8.9572 20.2477C8.9432 20.0817 8.7812 20.3227 8.9572 20.2477ZM11.4272 21.7897C11.8242 22.0397 13.7472 22.3397 12.5422 21.8927C12.3422 21.9347 10.3122 21.3187 11.4262 21.7897H11.4272ZM7.50621 18.7357C7.46621 18.5687 6.89021 18.5507 7.50621 18.7357ZM8.65621 19.4057C8.95621 19.1957 8.03521 19.2457 8.65621 19.4057ZM9.6222 19.9987C10.0522 19.8367 8.9262 19.8357 9.6222 19.9987ZM7.03821 18.2257C7.50421 18.5837 8.91821 18.2717 7.75221 18.0127C7.22221 17.7297 6.02521 17.5367 6.84021 18.1827L7.03821 18.2257ZM10.2782 20.2037C10.4712 19.8737 9.4632 20.0137 10.2782 20.2037ZM9.2942 19.4207C10.4342 19.7437 8.3362 18.7007 9.0132 19.3027L9.16321 19.3707L9.2942 19.4207ZM11.2672 20.5607C12.3472 20.5707 10.2922 20.4137 11.2672 20.5607ZM6.62321 17.6007C6.58121 17.4007 6.35721 17.6187 6.62321 17.6007ZM13.0932 21.5857C13.1212 21.2227 12.7402 21.8557 13.0932 21.5857ZM8.4632 18.7297C8.3992 18.5387 8.1272 18.7217 8.4632 18.7297ZM6.72521 17.4757C7.34521 17.4387 5.87721 17.2027 6.72521 17.4757ZM4.66521 16.1437C4.58821 15.8467 3.99121 15.6097 4.66521 16.1437ZM10.0722 19.5787C10.0182 19.6067 9.9582 19.4487 10.0722 19.5787ZM13.4382 21.6437C13.4282 21.4467 13.2552 21.7187 13.4382 21.6437ZM9.77421 19.2707C9.83421 19.0157 9.24621 19.1937 9.77421 19.2707ZM7.26821 17.6787C7.72821 17.6287 6.52821 17.3677 7.26821 17.6787ZM11.5092 20.3157C12.2272 20.0307 10.8092 20.1757 11.5092 20.3157ZM9.3032 18.8187C10.1302 18.9247 8.3182 18.2557 9.1222 18.7587L9.3032 18.8187ZM12.1792 20.5867C12.9522 20.1247 12.6972 21.6687 13.4902 20.7167C14.2722 20.1467 12.8152 21.4237 13.7802 20.8197C14.4762 20.3527 15.5062 21.0397 16.1562 21.2647C16.6242 21.2417 17.0792 21.6697 17.5592 21.4097C18.4822 21.1597 15.7532 21.0397 16.4692 20.5997C15.6242 20.8447 14.9992 20.3057 14.5842 19.7647C13.6362 19.5447 12.5402 19.0617 12.0672 18.2227C11.8752 17.9077 12.3472 18.2667 11.9012 17.7527C11.3312 17.2447 11.0452 16.6677 10.6612 16.0507C10.2042 15.8067 10.1512 15.0877 10.1042 16.0267C10.1082 15.4337 9.5512 15.0347 9.4162 15.2007C9.4142 14.6297 10.0112 14.9157 9.59221 14.4937C9.50221 13.9017 9.2062 13.2837 9.1172 12.6167C8.9792 12.2947 9.09721 11.6057 8.64421 12.3347C8.47921 13.1047 8.5892 11.3877 8.8462 11.9547C9.1832 11.3747 8.7262 11.4447 8.7062 11.5247C8.9262 11.0367 8.84621 10.3447 8.64921 10.6087C8.76621 10.0917 8.83421 8.7067 8.47421 8.9527C8.69221 8.4127 8.88821 6.4797 7.94021 7.2167C7.55621 7.2217 6.89221 7.3567 6.57721 7.5127C7.56321 8.0557 6.47721 7.7087 6.07721 7.6227C6.02521 8.1247 5.62721 7.9077 5.13121 7.9127C5.92421 8.0107 4.74521 8.7227 4.29021 8.4467C3.70021 8.7287 4.80021 9.4337 4.30221 9.6517C4.36221 9.9797 3.39721 9.5317 3.47221 10.2917C2.89921 10.0507 3.39421 11.1917 3.68121 10.8057C4.65621 11.0697 4.36721 11.6717 4.39121 12.2427C4.23321 12.5757 3.60721 11.4597 4.25121 11.5117C3.74421 10.6847 3.69021 11.2117 3.26721 11.5967C3.16721 11.6247 4.34621 12.1437 3.60721 12.3997C4.25721 12.4997 4.27521 13.0697 4.40721 13.4297C4.79721 13.8367 4.71721 12.9797 5.18621 13.4697C4.89021 13.0337 3.61921 12.2417 4.64221 12.4957C4.63721 12.0557 4.45721 11.7027 4.77121 11.7117C5.08121 11.1497 4.44621 13.0987 5.14621 12.3837C5.33921 12.2987 5.38621 11.8207 5.73621 12.4287C6.24121 12.9267 5.91821 13.2867 5.20521 12.8317C5.33221 13.2647 6.15921 13.4187 6.00421 14.0967C6.16921 14.6917 6.39921 14.4727 6.60021 14.4387C6.75821 15.0167 6.84721 14.5917 6.85521 14.3157C7.57521 14.4707 7.40721 14.8957 7.63321 15.1957C8.13021 15.4197 6.92121 13.6737 7.77521 14.6697C8.67321 15.4797 8.11221 15.8197 7.30521 15.6897C7.81521 15.6487 7.98021 16.3797 8.61821 16.3537C9.20021 16.6307 9.5932 17.6937 8.5912 17.2507C8.2432 16.9377 7.01121 16.5507 8.01821 17.1467C8.94721 17.5767 9.6832 17.8347 10.5792 18.3737C11.2192 18.8317 11.4972 19.3557 11.7392 19.4597C11.2012 19.7167 10.1162 19.2537 10.9222 19.1117C10.4192 19.0207 9.85421 18.7667 10.3352 19.3917C10.7452 19.7347 11.7852 19.6977 11.9722 19.7367C11.8132 20.0847 11.5422 20.1127 11.9782 20.1397C11.4922 20.3997 12.1342 20.4387 12.1792 20.5867ZM11.1852 17.7787C10.8892 17.4687 10.8122 16.8887 11.1322 17.3937C11.2962 17.4597 11.6572 18.3407 11.1852 17.7787ZM14.4232 19.8357C14.6082 19.8247 14.4292 19.9757 14.4232 19.8357ZM10.7172 17.0197C10.8242 17.3797 10.7072 16.5517 10.7172 17.0197ZM10.3952 16.5867C10.8652 16.7907 10.0232 15.8667 10.3952 16.5867ZM6.49521 13.8947C6.71421 13.8347 6.60321 14.2687 6.49521 13.8947ZM9.59921 15.5767C9.75721 16.0007 9.73321 15.0727 9.59921 15.5767ZM7.40721 14.0517C7.73021 14.3117 7.25221 13.7737 7.40721 14.0517ZM9.2892 14.6557C8.9372 13.8657 9.5392 14.2237 9.3672 14.7857L9.2892 14.6557ZM6.04321 12.4907C5.88521 12.2307 5.62521 11.4707 5.70921 11.2387C5.78521 11.6167 6.51321 12.8657 6.06621 11.7567C5.57221 10.8267 6.65621 12.0587 6.76821 12.2907C6.81821 12.5207 6.46321 12.2277 6.70421 12.7687C6.26421 12.1517 6.44421 13.1087 6.04321 12.4907ZM5.04021 11.7997C5.27021 12.2127 5.08021 11.1967 5.04021 11.7997ZM5.49021 11.9547C5.85621 12.5887 5.70621 11.4997 5.49021 11.9547ZM4.40621 11.1147C4.03221 10.7447 3.76221 10.4017 4.42321 10.8847C4.67821 10.8947 3.85721 10.1067 4.48321 10.6347C5.14321 10.7547 4.81021 11.7167 4.40621 11.1147ZM4.97621 11.0997C5.19321 10.8847 5.09121 11.3117 4.97621 11.0997ZM5.32621 11.2127C5.72621 11.4707 4.99821 10.5957 5.32621 11.2127ZM4.62921 10.5457C3.54321 9.5797 5.99421 11.0517 4.80621 10.7257L4.62921 10.5457ZM7.73921 12.3537C7.26921 12.0717 7.61621 10.3697 7.77621 11.5337C8.23321 11.3857 7.75121 12.1337 8.09121 12.1277C8.03821 12.6007 7.88521 12.7707 7.74121 12.3537H7.73921ZM8.8892 13.0337C8.9882 13.3837 8.9372 12.5207 8.8892 13.0337ZM8.68921 12.8357C8.74321 12.6157 8.69621 13.0937 8.68921 12.8357ZM4.84321 10.2287C4.14621 9.2657 6.87021 11.2017 5.29021 10.4727C5.12521 10.4297 4.92621 10.4127 4.84321 10.2287ZM7.05921 11.4037C7.20621 11.5377 6.99321 10.5937 7.05921 11.4037ZM8.74121 12.4827C8.87121 12.0207 8.75121 12.7877 8.74121 12.4827ZM4.94921 9.8607C5.36421 9.7727 6.66721 10.5897 5.46921 10.0947C5.33721 9.9467 5.05321 10.0147 4.94921 9.8607ZM8.5092 11.6357C8.5532 10.8057 8.7572 11.1407 8.5112 11.7537L8.5092 11.6357ZM5.25821 9.5727C5.42721 9.3247 4.80821 8.4527 5.34721 9.2597C5.57921 9.4447 6.01921 9.5697 5.63021 9.6467C6.24021 10.1857 5.48021 9.7927 5.25821 9.5727ZM8.33321 11.3767C8.45021 10.4327 8.43621 11.9297 8.33321 11.3767ZM4.90521 8.7007C5.03421 8.6457 4.97321 8.8727 4.90521 8.7007ZM5.70721 9.1787C6.08721 9.6617 5.91321 8.7447 5.70721 9.1787ZM7.97021 10.4377C8.01321 10.6797 7.96821 10.2707 7.97021 10.4377ZM7.83921 10.1477C8.13121 10.5577 7.52521 9.3717 7.83921 10.1477ZM7.64621 9.6377C7.82621 10.0417 7.59321 9.3177 7.64621 9.6377ZM7.96021 9.1277C7.74421 8.7477 8.2322 7.4547 8.2862 8.2577C8.0592 8.8827 8.2212 9.2327 8.3792 8.3937C8.6722 7.7337 8.31621 9.6967 7.95921 9.1287L7.96021 9.1277ZM8.2822 7.2047C8.3762 7.0897 8.3022 7.3437 8.2822 7.2047ZM7.74321 17.8177C7.75921 17.8877 7.61521 17.7067 7.74321 17.8177ZM8.8532 18.3777C9.4682 18.5377 9.46521 18.2827 8.90821 18.2077C8.60821 17.9277 7.6622 17.6327 8.5082 18.1727C8.5652 18.3147 8.74321 18.3117 8.85221 18.3787L8.8532 18.3777ZM6.66221 16.9237C7.00221 17.1767 7.94221 17.6427 7.14621 17.0197C7.41521 16.7077 6.63221 16.5417 6.89221 16.3337C6.23221 15.9297 6.37221 15.9657 6.83421 15.9777C6.04021 15.6237 6.94821 15.6497 6.90421 15.4677C6.59921 15.4077 5.38421 14.9277 6.10021 15.5077C5.37421 15.1377 5.92721 15.6457 5.70821 15.5917C4.96521 15.3897 6.36821 16.1567 5.59021 15.9667C6.01521 16.3037 6.73621 16.8307 5.77021 16.3237C5.64221 16.5067 6.46021 16.7837 6.66221 16.9237ZM7.82221 17.5907C9.23221 18.0447 7.13121 17.0347 7.82221 17.5907ZM13.7622 21.1887C13.7822 20.9087 13.5692 21.4287 13.7622 21.1887ZM14.3732 21.4457C14.6982 21.1307 14.3862 21.9487 14.9132 21.3687C14.9182 20.9537 14.8962 20.7087 14.3072 21.2127C14.1452 21.3027 14.0732 21.6857 14.3732 21.4457ZM4.68121 15.3587C4.58121 14.9657 3.98121 14.9687 4.68121 15.3587ZM5.33321 15.7867C5.09121 15.3847 4.46921 15.4227 5.33321 15.7867ZM9.04321 18.0237C9.40521 18.3437 10.7052 18.2597 9.4832 18.0637C9.3012 17.7937 8.33221 17.8597 9.04321 18.0237ZM14.1402 21.1727C14.6982 20.7047 13.6002 21.3807 14.1402 21.1727ZM15.3002 21.9687C15.3032 21.8187 15.0602 22.0347 15.3002 21.9687ZM15.3012 21.7587C15.9182 21.1047 14.7032 21.7977 15.3012 21.7587ZM3.07821 14.0167C2.55221 13.2667 2.75121 12.9287 2.24321 12.3167C2.14721 11.8467 1.37321 10.7837 1.84321 11.9107C2.27321 12.5697 2.40121 13.5897 3.07821 14.0167ZM15.1082 21.5507C16.2432 20.8167 14.6422 21.2307 15.1082 21.5507ZM15.9742 21.8907C16.5442 21.4027 15.6142 21.7887 15.9742 21.8907ZM4.48821 14.5287C4.65121 14.2867 4.06821 14.4977 4.48821 14.5287ZM15.7932 21.6577C16.3442 21.3027 15.6672 21.3577 15.6932 21.6897L15.7932 21.6577ZM8.3232 16.9477C8.3032 16.7077 8.0322 16.9677 8.3232 16.9477ZM8.78321 17.2147C8.63821 16.9177 8.55921 17.2617 8.78321 17.2147ZM16.6772 21.8987C17.3822 21.3887 16.2492 21.8007 16.5292 21.9947L16.6772 21.8987ZM16.4072 21.7687C16.9812 21.2867 15.8002 21.9817 16.4072 21.7687ZM17.7872 22.6867C18.1732 22.4287 17.3182 22.6037 17.7872 22.6867ZM4.84321 14.3537C5.36021 14.4697 6.90921 15.6277 5.99521 14.4337C5.52721 14.2957 5.80821 13.1507 5.33021 13.3537C5.65021 13.8887 5.59421 14.1167 4.92021 13.7797C4.07521 13.3667 4.44621 13.9837 4.61021 14.1537C4.38621 14.2057 4.90921 14.3497 4.84321 14.3537ZM2.48721 12.4937C2.57921 12.1107 1.63421 10.3867 2.04121 11.6297C2.18721 11.8897 2.17121 12.3837 2.48721 12.4937ZM6.81121 15.1597C6.79821 15.1277 6.54521 14.9367 6.81121 15.1597ZM7.46721 15.3117C7.46721 14.9067 6.74221 15.1477 7.46721 15.3117ZM13.1482 18.8947C13.0402 18.6167 12.7202 18.8887 13.1482 18.8947ZM13.4212 19.0937C13.3812 18.9387 13.2642 19.1237 13.4212 19.0937ZM15.6732 20.5137C15.8892 20.3537 15.4032 20.4937 15.6732 20.5137ZM3.66321 12.7937C4.28321 12.5537 2.99921 12.6237 3.66321 12.7937ZM12.6472 18.4557C12.6402 18.0547 12.2522 18.5557 12.6472 18.4557ZM3.41721 12.2247C3.81621 12.0897 3.05021 12.1347 3.41721 12.2247ZM4.57321 12.7847C4.56621 12.6517 4.45121 12.8347 4.57321 12.7847ZM18.6632 21.4247C19.1752 21.3207 20.3412 21.6847 20.5292 21.2887C19.9092 21.2737 18.3792 20.8507 18.3072 21.3887L18.4432 21.4117L18.6632 21.4247ZM4.94021 12.8767C4.94921 12.4697 4.62321 12.8617 4.94021 12.8767ZM1.90321 10.7687C1.76521 9.9937 1.37821 10.6507 1.90321 10.7687ZM2.62721 10.9507C2.63621 10.7007 1.96421 10.7267 2.62721 10.9507ZM3.04121 11.1537C2.94721 11.2757 2.92121 11.0567 3.04121 11.1537ZM5.64621 12.8237C5.76821 12.7117 5.35621 12.7407 5.64621 12.8237ZM2.76621 10.6957C2.69621 10.1107 1.92621 10.6077 2.76621 10.6957ZM1.28021 9.7317C1.26021 9.4617 1.13621 9.8337 1.28021 9.7317ZM1.50021 9.5647C1.46521 9.2447 1.31021 9.6047 1.50021 9.5647ZM2.72021 10.2937C3.23821 10.0907 1.78021 9.8737 2.61621 10.2537L2.72021 10.2937ZM19.0542 20.3827C19.3842 20.0797 18.6342 20.2887 19.0542 20.3827ZM21.0282 21.4057C21.1602 21.0137 20.6942 21.4557 21.0282 21.4057ZM2.84621 9.6537C2.90121 9.2737 2.43621 9.7287 2.84621 9.6537ZM1.11021 8.4917C1.01721 7.9567 1.03021 7.0177 1.92221 7.3357C0.731205 7.5717 2.74621 8.8157 2.49221 7.8337C2.99221 7.8577 3.47221 7.5377 3.20821 8.0237C4.19521 7.9137 4.87821 7.0597 5.83221 7.1787C6.57421 7.0807 7.38621 7.0067 8.18621 6.7077C8.84421 6.6597 9.47621 5.9517 9.11621 5.5327C8.22021 5.4567 7.28121 5.5687 6.28921 5.7657C5.19121 5.9937 4.19321 6.4277 3.08421 6.6147C2.00421 6.7597 3.30121 7.0147 2.99221 7.0707C2.42821 7.2667 3.66421 7.3987 2.91921 7.6047C2.45921 7.5167 1.97921 7.3587 2.17621 6.8747C1.14121 7.0077 0.231205 7.4377 1.04921 8.4907L1.11021 8.4917ZM3.60421 7.2217C3.84721 6.3277 4.90421 7.9567 4.00221 7.3397C3.89421 7.2597 3.71721 7.1937 3.60421 7.2197V7.2217ZM3.65121 6.7877C4.00121 6.5277 3.83721 6.9337 3.65121 6.7877ZM4.09621 6.7957C4.12821 6.3847 5.11421 7.0137 4.25921 6.9437L4.09621 6.7957ZM4.70421 6.5507C4.92621 6.2907 4.76821 6.7807 4.70421 6.5507ZM4.86021 6.4467C5.23021 6.0027 6.95521 6.1637 5.69221 6.4037C5.35421 6.1487 5.09421 6.5537 4.86021 6.4467ZM7.11021 6.0997C8.22921 6.5317 7.05521 4.8857 7.11021 6.0997ZM7.75021 6.0957C7.98321 5.4837 8.65621 5.8507 7.85821 5.9727C7.87521 6.0377 7.83421 6.2887 7.75021 6.0957ZM2.59521 9.3407C3.29221 8.9137 1.85421 8.9707 2.59521 9.3407ZM3.11021 9.4847C3.35521 9.2247 2.57921 9.3787 3.11021 9.4847ZM1.59021 8.4047C1.98921 8.0997 1.11921 8.2887 1.59021 8.4047ZM22.1922 21.2947C22.2042 20.9397 21.8882 21.4547 22.1922 21.2947ZM20.0992 19.8647C20.1592 19.4567 19.8292 19.9017 20.0992 19.8647ZM22.7692 21.4327C23.3262 21.4327 24.4572 21.2597 23.2442 21.2597C23.0542 21.2897 22.1362 21.2837 22.7692 21.4327ZM3.56321 9.2327C4.01321 9.2027 4.26921 8.7357 3.47621 8.7627C2.24621 8.6357 4.56021 9.1827 3.31821 9.0267C3.15121 9.1367 3.55421 9.2637 3.56321 9.2337V9.2327ZM3.96121 9.4347C3.91321 9.1447 3.82121 9.5887 3.96121 9.4347ZM4.43121 8.1777C4.62821 7.9347 4.16121 8.1127 4.43121 8.1777ZM2.93121 5.6697C3.73721 5.3957 4.83821 5.0887 5.21821 5.8047C4.83121 5.3387 5.06221 4.8807 5.42821 5.5617C5.94421 6.2507 6.20321 5.2487 5.86621 5.0167C6.24921 5.4927 6.68521 5.7167 6.12321 5.0467C6.73321 4.3127 4.90021 5.1437 4.48321 5.1347C4.28321 5.2247 2.41121 5.6117 2.93121 5.6697ZM3.40321 4.7667C3.86321 4.4197 4.99121 4.9727 4.26721 4.4217C4.19721 4.3597 2.68121 4.8397 3.40321 4.7667ZM5.07721 4.8357C5.61521 4.8487 4.84621 4.1137 5.48621 4.4457C5.38121 4.1027 4.74021 4.0387 4.42621 3.9017C4.25021 4.2157 4.78721 4.8397 5.07721 4.8357ZM3.69721 3.3157C3.88321 3.0637 3.37121 3.4437 3.69721 3.3157ZM4.38121 3.4797C5.24721 3.3647 4.16121 3.1067 4.20721 3.4697L4.38121 3.4797ZM3.10421 2.4797C2.49421 1.6837 4.25021 2.6137 3.63121 1.7797C3.10921 1.3647 2.60821 2.2477 3.10421 2.4797ZM10.9282 6.6947C11.2082 6.1987 9.7732 6.0267 10.7402 6.5197C10.8302 6.5497 10.8102 6.7297 10.9282 6.6947Z" fill="white"/>
</g>
<defs>
<clipPath id="clip0_1201_155">
<rect width="24" height="24" fill="white" transform="translate(0.273438 0.273926)"/>
</clipPath>
</defs>
</svg>
