<svg width="26" height="26" viewBox="0 0 26 26" fill="none" xmlns="http://www.w3.org/2000/svg">
<path d="M19.4146 0.273926H6.1333C2.89726 0.273926 0.273926 2.89726 0.273926 6.1333V19.4146C0.273926 22.6506 2.89726 25.2739 6.1333 25.2739H19.4146C22.6506 25.2739 25.2739 22.6506 25.2739 19.4146V6.1333C25.2739 2.89726 22.6506 0.273926 19.4146 0.273926Z" fill="#E14E1D"/>
<path d="M4.96143 3.98486L5.80225 13.4178H16.6138L16.251 17.4637L12.7699 18.4049L9.29541 17.465L9.06309 14.8672H5.93213L6.37988 19.8751L12.7692 21.6497L19.1667 19.8751L20.0244 10.2988H8.65518L8.36973 7.10449H20.307L20.5864 3.98486H4.96143Z" fill="white"/>
<path d="M12.7739 3.98486H4.96143L5.80225 13.4178H12.7739V10.2988H8.65518L8.36973 7.10449H12.7739V3.98486ZM12.7739 18.4035L12.7699 18.4049L9.29541 17.465L9.06309 14.8672H5.93213L6.37988 19.8751L12.7692 21.6497L12.774 21.6483L12.7739 18.4035Z" fill="#EBEBEB"/>
</svg>
