<svg width="27" height="28" viewBox="0 0 27 28" fill="none" xmlns="http://www.w3.org/2000/svg">
<g clip-path="url(#clip0_1196_143)">
<path d="M13.5 27.948C13.0808 27.948 12.6895 27.8453 12.3261 27.6656L8.60868 25.6372C8.04969 25.3548 8.32918 25.2521 8.49688 25.2007C9.25151 24.9697 9.39125 24.9183 10.1738 24.5074C10.2578 24.4561 10.3696 24.4817 10.4533 24.5331L13.3044 26.0993C13.4162 26.1507 13.5559 26.1507 13.6397 26.0993L24.792 20.1683C24.9038 20.1169 24.9597 20.0142 24.9597 19.8859V8.04922C24.9597 7.92085 24.9038 7.81815 24.792 7.7668L13.6397 1.86132C13.5279 1.80997 13.3882 1.80997 13.3044 1.86132L2.15209 7.7669C2.04029 7.81825 1.98439 7.94662 1.98439 8.04932V19.8859C1.98439 19.9886 2.04029 20.1169 2.15209 20.1683L5.19877 21.7858C6.84787 22.556 7.88189 21.6574 7.88189 20.7588V9.07621C7.88189 8.92217 8.02174 8.76812 8.21739 8.76812H9.6429C9.8106 8.76812 9.97829 8.89649 9.97829 9.07621V20.7587C9.97829 22.7871 8.77637 23.9681 6.68007 23.9681C6.03724 23.9681 5.53416 23.9681 4.10875 23.3263L1.17387 21.7858C0.447188 21.4006 0 20.6817 0 19.9114V8.075C0 7.30475 0.447188 6.58586 1.17387 6.20064L12.3261 0.269585C13.0249 -0.0898616 13.9751 -0.0898616 14.6739 0.269585L25.8261 6.20064C26.5528 6.58576 27 7.30466 27 8.075V19.9115C27 20.6818 26.5528 21.4007 25.8261 21.7858L14.6739 27.717C14.3105 27.8711 13.8913 27.9481 13.5 27.9481M16.9379 19.8088C12.0465 19.8088 11.0404 17.7549 11.0404 16.0089C11.0404 15.8548 11.1801 15.7008 11.3758 15.7008H12.8291C12.9968 15.7008 13.1367 15.8035 13.1367 15.9575C13.3603 17.3183 14.0031 17.9859 16.9658 17.9859C19.3136 17.9859 20.3199 17.4981 20.3199 16.3427C20.3199 15.6751 20.0404 15.1873 16.3789 14.8534C13.3323 14.571 11.4317 13.9548 11.4317 11.7211C11.4317 9.64125 13.3322 8.40886 16.5186 8.40886C20.0962 8.40886 21.8571 9.53855 22.0807 12.0034C22.0807 12.0805 22.0528 12.1575 21.9969 12.2345C21.941 12.2858 21.8571 12.3372 21.7733 12.3372H20.3199C20.1801 12.3372 20.0404 12.2345 20.0124 12.1061C19.677 10.694 18.8106 10.2319 16.5186 10.2319C13.9473 10.2319 13.6397 11.0535 13.6397 11.6697C13.6397 12.4143 14.0031 12.6453 17.4689 13.0561C20.9069 13.4669 22.5279 14.0575 22.5279 16.2656C22.5 18.5251 20.4876 19.8088 16.9379 19.8088Z" fill="#539E43"/>
</g>
<defs>
<clipPath id="clip0_1196_143">
<rect width="27" height="28" fill="white"/>
</clipPath>
</defs>
</svg>
