<svg width="24" height="23" viewBox="0 0 24 23" fill="none" xmlns="http://www.w3.org/2000/svg">
<g clip-path="url(#clip0_1201_157)">
<path d="M11.7788 22.9004C5.93577 22.9004 6.3006 20.3748 6.3006 20.3748L6.30709 17.7583H11.8829V16.9727H4.09244C4.09244 16.9727 0.353516 17.3953 0.353516 11.5191C0.353516 5.64273 3.61694 5.85114 3.61694 5.85114H5.56455V8.57801C5.56455 8.57801 5.45955 11.8308 8.77588 11.8308H14.3061C14.3061 11.8308 17.4132 11.7807 17.4132 14.8238V19.8553C17.4132 19.8553 17.8851 22.9004 11.7788 22.9004ZM8.70423 21.1408C8.836 21.1409 8.96649 21.1151 9.08824 21.0649C9.20999 21.0147 9.32062 20.9411 9.41379 20.8482C9.50696 20.7554 9.58084 20.6451 9.63121 20.5237C9.68158 20.4024 9.70744 20.2723 9.70733 20.141C9.70744 20.0097 9.68158 19.8796 9.63121 19.7582C9.58084 19.6369 9.50696 19.5266 9.41379 19.4338C9.32062 19.3409 9.20999 19.2673 9.08824 19.2171C8.96649 19.1669 8.836 19.1411 8.70423 19.1412C8.57247 19.1411 8.44198 19.1669 8.32023 19.2171C8.19847 19.2673 8.08785 19.3409 7.99468 19.4338C7.90151 19.5266 7.82762 19.6369 7.77726 19.7582C7.72689 19.8796 7.70102 20.0097 7.70114 20.141C7.70102 20.2723 7.72689 20.4024 7.77726 20.5237C7.82762 20.6451 7.90151 20.7554 7.99468 20.8482C8.08785 20.9411 8.19847 21.0147 8.32023 21.0649C8.44198 21.1151 8.57247 21.1409 8.70423 21.1408Z" fill="url(#paint0_linear_1201_157)"/>
<path d="M11.9447 0.0787406C17.7877 0.0787406 17.4229 2.60431 17.4229 2.60431L17.4164 5.22078H11.8405V6.00634H19.631C19.631 6.00634 23.3699 5.58369 23.3699 11.4601C23.3699 17.3364 20.1065 17.128 20.1065 17.128H18.1589V14.4012C18.1589 14.4012 18.2639 11.1485 14.9475 11.1485H9.41727C9.41727 11.1485 6.31021 11.1985 6.31021 8.15534V3.1237C6.31021 3.1237 5.83841 0.0787406 11.9446 0.0787406M15.0192 1.83815C14.8874 1.83803 14.7569 1.86381 14.6352 1.91401C14.5134 1.96422 14.4028 2.03786 14.3096 2.13072C14.2164 2.22358 14.1426 2.33385 14.0922 2.45521C14.0418 2.57656 14.016 2.70662 14.0161 2.83795C14.016 2.96929 14.0418 3.09937 14.0922 3.22073C14.1425 3.3421 14.2164 3.45237 14.3096 3.54525C14.4028 3.63812 14.5134 3.71177 14.6351 3.76198C14.7569 3.81218 14.8874 3.83797 15.0192 3.83785C15.1509 3.83797 15.2814 3.81219 15.4032 3.76199C15.5249 3.71178 15.6356 3.63814 15.7287 3.54528C15.8219 3.45241 15.8958 3.34215 15.9462 3.22079C15.9965 3.09944 16.0224 2.96937 16.0223 2.83804C16.0224 2.70671 15.9965 2.57665 15.9462 2.4553C15.8958 2.33394 15.8219 2.22368 15.7287 2.13081C15.6356 2.03795 15.5249 1.96431 15.4032 1.9141C15.2814 1.8639 15.1509 1.83803 15.0192 1.83815Z" fill="url(#paint1_linear_1201_157)"/>
</g>
<defs>
<linearGradient id="paint0_linear_1201_157" x1="221.54" y1="-182.367" x2="1358.45" y2="-1311.64" gradientUnits="userSpaceOnUse">
<stop stop-color="#387EB8"/>
<stop offset="1" stop-color="#366994"/>
</linearGradient>
<linearGradient id="paint1_linear_1201_157" x1="332.781" y1="-333.746" x2="1553.88" y2="-1491.88" gradientUnits="userSpaceOnUse">
<stop stop-color="#FFE052"/>
<stop offset="1" stop-color="#FFC331"/>
</linearGradient>
<clipPath id="clip0_1201_157">
<rect width="23.072" height="22.9066" fill="white" transform="matrix(1 0 0 -1 0.340332 22.9067)"/>
</clipPath>
</defs>
</svg>
