<svg width="28" height="30" viewBox="0 0 28 30" fill="none" xmlns="http://www.w3.org/2000/svg">
<path d="M19.401 16.8966C20.4343 16.7992 21.2182 15.9885 21.1825 15.0155C21.147 14.0426 20.2561 13.2643 19.1872 13.2643H19.116C18.0113 13.2967 17.1562 14.1399 17.1919 15.1452C17.2275 15.6317 17.4413 16.0533 17.762 16.3452C16.5505 18.5181 14.6977 20.1072 11.9185 21.4369C10.03 22.3449 8.07034 22.6693 6.11067 22.4423C4.50723 22.2477 3.26014 21.5991 2.47614 20.5288C1.33601 18.9397 1.22916 17.2208 2.19122 15.502C2.86825 14.2696 3.93706 13.3615 4.61409 12.9075C4.47158 12.4859 4.25775 11.7724 4.15089 11.2536C-1.01566 14.6588 -0.481142 19.264 1.08664 21.4369C2.26242 23.0585 4.64975 24.0638 7.28645 24.0638C7.99903 24.0638 8.71161 23.9989 9.42429 23.8369C13.9851 23.026 17.4414 20.5612 19.401 16.8966ZM25.6722 12.8751C22.9642 9.98875 18.9735 8.39966 14.4127 8.39966H13.8426C13.5219 7.81591 12.8449 7.42668 12.0967 7.42668H12.0253C10.9209 7.45913 10.0658 8.3023 10.1013 9.30774C10.137 10.2806 11.0277 11.059 12.0967 11.059H12.1679C12.9517 11.0265 13.6288 10.5725 13.9138 9.95629H14.5552C17.2632 9.95629 19.8286 10.6698 22.1447 12.0643C23.9262 13.1346 25.209 14.5291 25.9215 16.2155C26.5273 17.5776 26.4916 18.9073 25.8502 20.0424C24.8526 21.7612 23.178 22.7017 20.9688 22.7017C19.5436 22.7017 18.1896 22.3125 17.4769 22.0206C17.085 22.3449 16.3723 22.8638 15.8735 23.1882C17.4057 23.8368 18.9735 24.1935 20.47 24.1935C23.8906 24.1935 26.4204 22.4747 27.3825 20.7559C28.4157 18.8748 28.3444 15.6317 25.6722 12.8751ZM7.57148 17.4478C7.60714 18.4208 8.49789 19.199 9.56681 19.199H9.63812C10.7427 19.1667 11.5978 18.3234 11.5621 17.3181C11.5266 16.3451 10.6357 15.5668 9.56681 15.5668H9.49561C9.4243 15.5668 9.31733 15.5668 9.24623 15.5992C7.78531 13.3939 7.17959 10.9941 7.39342 8.39956C7.53583 6.4537 8.24851 4.76725 9.49561 3.37269C10.5289 2.17273 12.5242 1.58899 13.8783 1.55663C17.6551 1.49173 19.2584 5.77259 19.3654 7.49148C19.8286 7.58874 20.6125 7.81581 21.147 7.97798C20.7193 2.72423 17.1562 0 13.7357 0C10.5289 0 7.57148 2.10803 6.39559 5.22139C4.75661 9.37254 5.82553 13.3615 7.82086 16.5073C7.64279 16.7343 7.53583 17.091 7.57148 17.4478Z" fill="#764ABC"/>
</svg>
